<svg width="40" height="40" viewBox="0 0 40 40" fill="none" xmlns="http://www.w3.org/2000/svg">
    <g id="burgerMenu">
        <rect id="Rectangle 8" x="5" width="27" height="3" fill="white"/>
        <rect id="Rectangle 9" y="9" width="32" height="3" fill="white"/>
        <rect id="Rectangle 10" x="3" y="18" width="29" height="3" fill="white"/>
    </g>

    <g id="quotes">
        <path d="M87.5047 128.014C83.2247 128.014 79.1174 128.743 75.0293 129.408C76.3536 124.433 77.7163 119.373 79.9043
         114.827C82.0923 108.222 85.5086 102.497 88.9058 96.7289C91.7463 90.489 96.7556 86.2647 100.441 80.9254C104.298
         75.7363 109.557 72.284 113.722 67.9739C117.81 63.4709 123.165 61.2194 127.426 58.0459C131.879 55.194 135.756
         52.0419 139.901 50.5409L150.246 45.7806L159.344 41.5563L150.035 0L138.577 3.08777C134.911 4.11702 130.439 5.31783
         125.353 6.7545C120.152 7.82664 114.605 10.7643 108.425 13.4447C102.322 16.4896 95.2586 18.5481 88.6946 23.4371C82.0923
         28.1116 74.4727 32.0142 67.7552 38.2755C61.2488 44.7299 53.3989 50.3265 47.6027 58.5391C41.269 66.2156 35.0122 74.2781
         30.1564 83.4557C24.5329 92.2044 20.7135 101.811 16.683 111.31C13.0363 120.809 10.0998 130.523 7.70071 139.958C3.15199
         158.87 1.11755 176.839 0.330641 192.214C-0.321917 207.61 0.0619402 220.411 0.868041 229.675C1.15593 234.049 1.69334
         238.295 2.07719 241.232L2.55701 244.835L3.05603 244.706C6.46969 262.522 14.3281 278.893 25.7221 291.927C37.1161
         304.961 51.5802 314.125 67.4412 318.359C83.3021 322.592 99.9118 321.723 115.349 315.85C130.786 309.978 144.419 299.343
         154.672 285.175C164.925 271.007 171.378 253.886 173.286 235.792C175.193 217.698 172.476 199.371 165.449 182.93C158.423
         166.489 147.374 152.606 133.58 142.888C119.786 133.17 103.812 128.013 87.5047 128.014ZM298.626 128.014C294.346 128.014
         290.239 128.743 286.151 129.408C287.475 124.433 288.838 119.373 291.026 114.827C293.214 108.222 296.63 102.497 300.027
         96.7289C302.868 90.489 307.877 86.2647 311.562 80.9254C315.42 75.7363 320.679 72.284 324.844 67.9739C328.932 63.4709
         334.287 61.2194 338.547 58.0459C343 55.194 346.877 52.0419 351.023 50.5409L361.368 45.7806L370.465 41.5563L361.157
         0L349.698 3.08777C346.033 4.11702 341.561 5.31783 336.475 6.7545C331.273 7.82664 325.727 10.7643 319.547 13.4447C313.462
         16.511 306.38 18.5481 299.816 23.4585C293.214 28.1331 285.594 32.0357 278.877 38.297C272.37 44.7513 264.521 50.3479
         258.724 58.5391C252.391 66.2156 246.134 74.2781 241.278 83.4557C235.654 92.2044 231.835 101.811 227.805 111.31C224.158
         120.809 221.221 130.523 218.822 139.958C214.274 158.87 212.239 176.839 211.452 192.214C210.8 207.61 211.184 220.411 211.99
         229.675C212.278 234.049 212.815 238.295 213.199 241.232L213.679 244.835L214.178 244.706C217.591 262.522 225.45 278.893 236.844
         291.927C248.238 304.961 262.702 314.125 278.563 318.359C294.424 322.592 311.033 321.723 326.47 315.85C341.907 309.978 355.541
         299.343 365.794 285.175C376.047 271.007 382.5 253.886 384.407 235.792C386.314 217.698 383.598 199.371 376.571 182.93C369.544
         166.489 358.495 152.606 344.702 142.888C330.908 133.17 314.934 128.013 298.626 128.014Z"
              fill="#CFCFCF" fill-opacity="0.2"/>
    </g>



    <g id="facebook">
        <!--<svg width="6.750000" height="13.500000" viewBox="0 0 6.75 13.5" fill="none" xmlns="http://www.w3.org/2000/svg"
        xmlns:xlink="http://www.w3.org/1999/xlink">-->
        <defs/>
        <path d="M4.5 4.5L6.75 4.5L6.46875 6.75L4.5 6.75L4.5 13.5L1.58203 13.5L1.58203 6.75L0 6.75L0 4.5L1.58203 4.5L1.58203
         2.98828C1.58203 2.00391 1.82812 1.26562 2.32031 0.773438C2.8125 0.257812 3.63281 0 4.78125 0L6.75 0L6.75 2.25L5.55469
          2.25C5.10938 2.25 4.81641 2.32031 4.67578 2.46094C4.55859 2.60156 4.5 2.83594 4.5 3.16406L4.5 4.5Z"
              fill="#8C8C8C" fill-opacity="1.000000" fill-rule="evenodd"/>
    </g>

<!--Social Media-->

    <g id="telegram">
        <!--    <svg xmlns="http://www.w3.org/2000/svg" x="0px" y="0px" width="100" height="100" viewBox="0 0 50 50"-->
        <!--    style="fill:#EBEBEB;">-->
        <defs/>
        <path d="M46.137,6.552c-0.75-0.636-1.928-0.727-3.146-0.238l-0.002,0C41.708,6.828,6.728,21.832,5.304,22.445
        	c-0.259,0.09-2.521,0.934-2.288,2.814c0.208,1.695,2.026,2.397,2.248,2.478l8.893,3.045c0.59,1.964,2.765,9.21,
        	3.246,10.758	c0.3,0.965,0.789,2.233,1.646,2.494c0.752,0.29,1.5,0.025,1.984-0.355l5.437-5.043l8.777,
        	6.845l0.209,0.125 c0.596,0.264,1.167,0.396,1.712,0.396c0.421,0,0.825-0.079,1.211-0.237c1.315-0.54,1.841-1.793,
        	1.896-1.935l6.556-34.077	C47.231,7.933,46.675,7.007,46.137,6.552z M22,32l-3,8l-3-10l23-17L22,32z"
              fill="currentColor" fill-opacity="1.000000" fill-rule="evenodd"
              transform="scale(0.6) translate(1.0, -5.0)"/>
    </g>

    <g id="youtube">
        <!--    <svg width="18.000000" height="13.500000" viewBox="0 0 18 13.5" fill="none" xmlns="http://www.w3.org/2000/svg"
         xmlns:xlink="http://www.w3.org/1999/xlink">-->
        <defs/>
        <path d="M17.8945 2.98828C17.9648 4.25391 18 5.50781 18 6.75C18 7.99219 17.9648 9.24609 17.8945 10.5117C17.8945
        11.3086 17.6367 11.9883 17.1211 12.5508C16.6289 13.0898 16.0195 13.3594 15.293 13.3594C13.4883 13.4531 11.3906
        13.5 9 13.5C6.60938 13.5 4.51172 13.4531 2.70703 13.3594C1.98047 13.3594 1.35938 13.0898 0.84375 12.5508C0.351562
        11.9883 0.105469 11.3086 0.105469 10.5117C0.0351562 9.24609 0 7.99219 0 6.75C0 5.92969 0.046875 4.67578 0.140625
        2.98828C0.140625 2.19141 0.386719 1.52344 0.878906 0.984375C1.37109 0.421875 1.98047 0.140625 2.70703
        0.140625C4.41797 0.046875 6.41016 0 8.68359 0L9 0L9.31641 0C11.5898 0 13.582 0.046875 15.293 0.140625C16.0195
        0.140625 16.6289 0.421875 17.1211 0.984375C17.6367 1.52344 17.8945 2.19141 17.8945 2.98828ZM7.27734 10.1953L12.375
        6.75L7.27734 3.26953L7.27734 10.1953Z"
              fill="currentColor" fill-opacity="1.000000" fill-rule="evenodd" transform="scale(1.88)"/>
    </g>

    <g id="vk">
        <!--<svg xmlns="http://www.w3.org/2000/svg" x="0px" y="0px" width="100" height="100" viewBox="0 0 50 50"-->
        <!--style="fill:#EBEBEB;">-->
        <defs/>
        <path d="M25,2C12.318,2,2,12.318,2,25s10.318,23,23,23c12.683,0,23-10.318,23-23S37.683,2,25,2z M34.973,29.535
        c2.237,1.986,2.702,2.695,2.778,2.816C38.678,33.821,36.723,34,36.723,34h-4.12c0,0-1.003,0.011-1.86-0.557
        c-1.397-0.915-2.86-2.689-3.888-2.381C25.992,31.32,26,32.486,26,33.483C26,33.84,25.693,34,25,34s-0.981,0-1.288,0
        c-2.257,0-4.706-0.76-7.149-3.313c-3.456-3.609-6.487-10.879-6.487-10.879s-0.179-0.366,0.016-0.589 c0.221-0.25,
        0.822-0.218,0.822-0.218L14.909,19c0,0,0.376,0.071,0.646,0.261c0.223,0.156,0.347,0.454,0.347,0.454 s0.671,
        2.216,1.526,3.629c1.67,2.758,2.447,2.828,3.014,2.531C21.27,25.445,21,22.513,21,22.513s0.037-1.259-0.395-1.82
        c-0.333-0.434-0.97-0.665-1.248-0.701c-0.225-0.029,0.151-0.423,0.63-0.648C20.627,19.059,21.498,18.986,23,19
        c1.169,0.011,1.506,0.081,1.962,0.186C26.341,19.504,26,20.343,26,23.289c0,0.944-0.13,2.271,0.582,2.711
        c0.307,0.19,1.359,0.422,3.231-2.618c0.889-1.442,1.596-3.834,1.596-3.834s0.146-0.263,0.373-0.393 c0.232-0.133,
        0.225-0.13,0.543-0.13S35.832,19,36.532,19c0.699,0,1.355-0.008,1.468,0.402c0.162,0.589-0.516,2.607-2.234,4.797
        C32.943,27.793,32.63,27.457,34.973,29.535z"
              transform="scale(0.5566666666666667) translate(-1.0, -2.0)" fill="currentColor"/>
    </g>

    <g id="git">
        <!--     <svg width="32.000000" height="32.000000" viewBox="0 0 32 32" fill="none" xmlns="http://www.w3.org/2000/svg"
         xmlns:xlink="http://www.w3.org/1999/xlink">-->
        <defs/>
        <path d="M15.5 6C9.69873 6 5 10.5881 5 16.2529C5 20.7898 8.00562 24.6218 12.1793 25.9805C12.7043 26.0701
        12.9012 25.7625 12.9012 25.4934C12.9012 25.25 12.8882 24.4424 12.8882 23.5837C10.25 24.0581 9.5675 22.9558
        9.35754 22.3792C9.23938 22.0842 8.72754 21.1743 8.28125 20.9309C7.9137 20.7385 7.38879 20.2644 8.26807
        20.2515C9.09497 20.2388 9.68567 20.9949 9.88245 21.3025C10.8275 22.8533 12.3369 22.4175 12.9407 22.1484C13.0325
        21.4819 13.3081 21.0334 13.61 20.7771C11.2738 20.5208 8.83252 19.6365 8.83252 15.7146C8.83252 14.5996 9.23938
        13.677 9.90869 12.9592C9.80371 12.7029 9.43628 11.6519 10.0138 10.2422C10.0138 10.2422 10.8931 9.9729 12.9012
        11.293C13.7412 11.0625 14.6338 10.947 15.5262 10.947C16.4187 10.947 17.3113 11.0625 18.1512 11.293C20.1594
        9.96021 21.0387 10.2422 21.0387 10.2422C21.6162 11.6519 21.2488 12.7029 21.1438 12.9592C21.8131 13.677 22.22
        14.5869 22.22 15.7146C22.22 19.6492 19.7656 20.5208 17.4293 20.7771C17.8101 21.0974 18.1382 21.7126 18.1382
        22.6738C18.1382 24.0452 18.125 25.1475 18.125 25.4934C18.125 25.7625 18.3219 26.083 18.8469 25.9805C20.9314
        25.2935 22.7428 23.9854 24.026 22.2402C25.3092 20.4954 25.9996 18.4011 26 16.2529C26 10.5881 21.3013 6 15.5 6Z"
              fill="currentColor" fill-opacity="1.000000" fill-rule="nonzero"
              transform="scale(1.3) translate(-4.0, -6.0)"/>
    </g>

    <!--Social Media-->

    <g id="arrow">
        <path d="M32 15H3.41l8.29-8.29-1.41-1.42-10 10a1 1 0 0 0 0 1.41l10 10 1.41-1.41L3.41 17H32z" fill="white"
              transform="scale(-1, 1) translate(-32, 0)"/>
    </g>

    <g id="TestimonyArrow">
        <!--        <svg width="26.250000" height="43.750000" viewBox="0 0 26.25 43.75" fill="none"
        xmlns="http://www.w3.org/2000/svg" xmlns:xlink="http://www.w3.org/1999/xlink">-->
        <defs/>
        <path  d="M26.25 2.59766L5.74219 21.875L26.25 41.1523L23.3789 43.75L0 21.875L23.3789 0L26.25 2.59766Z"
              fill="#737373" fill-opacity="1.000000" fill-rule="evenodd"/>
    </g>


</svg>





